<?xml version="1.0" encoding="UTF-8"?>
<!DOCTYPE svg PUBLIC "-//W3C//DTD SVG 1.1//EN" "http://www.w3.org/Graphics/SVG/1.1/DTD/svg11.dtd">
<svg xmlns="http://www.w3.org/2000/svg" version="1.1" width="3000px" height="2992px" style="shape-rendering:geometricPrecision; text-rendering:geometricPrecision; image-rendering:optimizeQuality; fill-rule:evenodd; clip-rule:evenodd" xmlns:xlink="http://www.w3.org/1999/xlink">
<g><path style="opacity:0.997" fill="#ce2028" d="M 1504.5,-0.5 C 1505.5,-0.5 1506.5,-0.5 1507.5,-0.5C 1734.48,226.812 1961.48,454.146 2188.5,681.5C 1961.47,909.359 1733.97,1136.69 1506,1363.5C 1278.03,1136.69 1050.53,909.359 823.5,681.5C 1050.52,454.146 1277.52,226.812 1504.5,-0.5 Z"/></g>
<g><path style="opacity:1" fill="#fefdfd" d="M 1575.5,612.5 C 1596.66,613.497 1617.99,613.831 1639.5,613.5C 1639.5,612.5 1639.5,611.5 1639.5,610.5C 1644.17,610.5 1648.83,610.5 1653.5,610.5C 1653.5,616.167 1653.5,621.833 1653.5,627.5C 1648.83,627.5 1644.17,627.5 1639.5,627.5C 1639.5,626.5 1639.5,625.5 1639.5,624.5C 1618.99,624.17 1598.66,624.503 1578.5,625.5C 1590.5,680.841 1602.5,736.174 1614.5,791.5C 1616.17,791.5 1617.83,791.5 1619.5,791.5C 1618.44,785.618 1617.1,779.785 1615.5,774C 1615.91,773.055 1616.57,772.388 1617.5,772C 1619.47,771.505 1621.47,771.338 1623.5,771.5C 1626.17,784.842 1628.83,798.176 1631.5,811.5C 1629.41,811.318 1627.41,811.652 1625.5,812.5C 1623.28,807.404 1621.95,802.071 1621.5,796.5C 1619.5,796.5 1617.5,796.5 1615.5,796.5C 1626.63,846.409 1637.47,896.409 1648,946.5C 1647.83,969.516 1644.83,992.183 1639,1014.5C 1635.33,1018.67 1631.16,1022.33 1626.5,1025.5C 1625.67,1018.86 1625.17,1012.19 1625,1005.5C 1623.04,1000.68 1621.7,995.683 1621,990.5C 1609.24,991.92 1599.9,987.92 1593,978.5C 1585.98,960.03 1591.82,947.53 1610.5,941C 1587.88,835.592 1564.88,730.259 1541.5,625C 1531.84,624.5 1522.17,624.334 1512.5,624.5C 1512.5,634.833 1512.5,645.167 1512.5,655.5C 1508.5,655.5 1504.5,655.5 1500.5,655.5C 1500.5,645.167 1500.5,634.833 1500.5,624.5C 1490.44,623.86 1480.78,624.527 1471.5,626.5C 1449.29,728.461 1427.29,830.461 1405.5,932.5C 1417.19,936.202 1422.03,944.202 1420,956.5C 1415.63,966.935 1407.8,971.602 1396.5,970.5C 1394.53,981.192 1392.36,991.859 1390,1002.5C 1388.78,1006.62 1386.78,1010.28 1384,1013.5C 1383.67,1021.5 1383.33,1029.5 1383,1037.5C 1382.28,1039.95 1381.28,1042.28 1380,1044.5C 1378.72,1042.28 1377.72,1039.95 1377,1037.5C 1376.67,1028.83 1376.33,1020.17 1376,1011.5C 1373.58,1007.5 1371.91,1003.16 1371,998.5C 1369.17,988.193 1367.51,977.86 1366,967.5C 1365.33,960.5 1365.33,953.5 1366,946.5C 1388.74,840.127 1411.57,733.794 1434.5,627.5C 1435.4,626.791 1435.74,625.791 1435.5,624.5C 1414.5,624.5 1393.5,624.5 1372.5,624.5C 1372.5,625.5 1372.5,626.5 1372.5,627.5C 1367.83,627.5 1363.17,627.5 1358.5,627.5C 1358.5,621.833 1358.5,616.167 1358.5,610.5C 1363.17,610.5 1367.83,610.5 1372.5,610.5C 1372.5,611.5 1372.5,612.5 1372.5,613.5C 1394.67,613.831 1416.67,613.497 1438.5,612.5C 1448.71,562.593 1459.38,512.76 1470.5,463C 1466.35,458.178 1462.18,453.345 1458,448.5C 1441.03,412.419 1450.53,385.586 1486.5,368C 1491.17,366.768 1495.83,365.601 1500.5,364.5C 1498.98,357.772 1497.15,351.105 1495,344.5C 1494.33,315.833 1494.33,287.167 1495,258.5C 1504.97,249.268 1514.97,249.268 1525,258.5C 1525.67,287.167 1525.67,315.833 1525,344.5C 1522.65,351.392 1520.81,358.392 1519.5,365.5C 1544.29,370.125 1560.46,384.459 1568,408.5C 1570.89,432.214 1562.72,451.047 1543.5,465C 1554.61,514.048 1565.28,563.215 1575.5,612.5 Z"/></g>
<g><path style="opacity:1" fill="#ce2229" d="M 1504.5,374.5 C 1506.3,375.162 1508.3,375.495 1510.5,375.5C 1512.95,375.461 1514.95,374.794 1516.5,373.5C 1516.22,371.654 1516.89,370.32 1518.5,369.5C 1550.31,376.473 1565.14,396.14 1563,428.5C 1560.1,441.315 1553.43,451.648 1543,459.5C 1541.69,453.789 1540.19,448.123 1538.5,442.5C 1532.5,443.833 1526.5,445.167 1520.5,446.5C 1518.69,449.946 1517.03,453.446 1515.5,457C 1512.66,457.37 1509.83,457.203 1507,456.5C 1504.36,456.657 1501.86,457.323 1499.5,458.5C 1497.41,454.729 1495.41,450.896 1493.5,447C 1487.16,445.433 1480.83,443.933 1474.5,442.5C 1473.76,447.215 1472.76,451.881 1471.5,456.5C 1449.76,435.075 1447.93,412.075 1466,387.5C 1475.82,376.673 1487.99,370.839 1502.5,370C 1503.27,371.47 1503.93,372.97 1504.5,374.5 Z"/></g>
<g><path style="opacity:1" fill="#e99699" d="M 1516.5,373.5 C 1514.95,374.794 1512.95,375.461 1510.5,375.5C 1508.3,375.495 1506.3,375.162 1504.5,374.5C 1508.6,374.763 1512.6,374.43 1516.5,373.5 Z"/></g>
<g><path style="opacity:1" fill="#ce242a" d="M 1512.5,582.5 C 1508.37,581.515 1504.03,581.182 1499.5,581.5C 1499.5,592.167 1499.5,602.833 1499.5,613.5C 1491.17,613.5 1482.83,613.5 1474.5,613.5C 1482.5,575.148 1490.67,536.814 1499,498.5C 1499.39,497.572 1500.05,496.905 1501,496.5C 1505.5,497.723 1510,497.723 1514.5,496.5C 1522.71,535.525 1531.04,574.525 1539.5,613.5C 1530.5,613.5 1521.5,613.5 1512.5,613.5C 1512.5,603.167 1512.5,592.833 1512.5,582.5 Z"/></g>
<g><path style="opacity:1" fill="#e79194" d="M 1512.5,582.5 C 1508.5,582.5 1504.5,582.5 1500.5,582.5C 1500.83,593.014 1500.49,603.347 1499.5,613.5C 1499.5,602.833 1499.5,592.167 1499.5,581.5C 1504.03,581.182 1508.37,581.515 1512.5,582.5 Z"/></g>
<g><path style="opacity:1" fill="#d84e53" d="M 1372.5,610.5 C 1394.27,612.472 1416.27,613.139 1438.5,612.5C 1416.67,613.497 1394.67,613.831 1372.5,613.5C 1372.5,612.5 1372.5,611.5 1372.5,610.5 Z"/></g>
<g><path style="opacity:1" fill="#d74c52" d="M 1639.5,610.5 C 1639.5,611.5 1639.5,612.5 1639.5,613.5C 1617.99,613.831 1596.66,613.497 1575.5,612.5C 1597.07,613.138 1618.4,612.471 1639.5,610.5 Z"/></g>
<g><path style="opacity:1" fill="#dd696d" d="M 1434.5,627.5 C 1424.69,626.168 1414.52,625.501 1404,625.5C 1393.27,625.524 1382.77,626.19 1372.5,627.5C 1372.5,626.5 1372.5,625.5 1372.5,624.5C 1393.5,624.5 1414.5,624.5 1435.5,624.5C 1435.74,625.791 1435.4,626.791 1434.5,627.5 Z"/></g>
<g><path style="opacity:1" fill="#dd666b" d="M 1578.5,625.5 C 1598.66,624.503 1618.99,624.17 1639.5,624.5C 1639.5,625.5 1639.5,626.5 1639.5,627.5C 1619.4,625.53 1599.07,624.863 1578.5,625.5 Z"/></g>
<g><path style="opacity:1" fill="#e68a8c" d="M 1512.5,655.5 C 1508.37,656.485 1504.03,656.818 1499.5,656.5C 1499.5,646.167 1499.5,635.833 1499.5,625.5C 1490.08,625.195 1480.75,625.528 1471.5,626.5C 1480.78,624.527 1490.44,623.86 1500.5,624.5C 1500.5,634.833 1500.5,645.167 1500.5,655.5C 1504.5,655.5 1508.5,655.5 1512.5,655.5 Z"/></g>
<g><path style="opacity:0.997" fill="#1f429a" d="M -0.5,1494.5 C -0.5,1493.5 -0.5,1492.5 -0.5,1491.5C 226.812,1264.52 454.146,1037.52 681.5,810.5C 909.359,1037.53 1136.69,1265.03 1363.5,1493C 1136.68,1721.15 909.179,1948.65 681,2175.5C 453.965,1948.3 226.799,1721.3 -0.5,1494.5 Z"/></g>
<g><path style="opacity:0.996" fill="#fbd013" d="M 2999.5,1491.5 C 2999.5,1492.5 2999.5,1493.5 2999.5,1494.5C 2772.2,1721.3 2545.03,1948.3 2318,2175.5C 2089.82,1948.65 1862.32,1721.15 1635.5,1493C 1862.31,1265.03 2089.64,1037.53 2317.5,810.5C 2544.85,1037.52 2772.19,1264.52 2999.5,1491.5 Z"/></g>
<g><path style="opacity:1" fill="#fefefe" d="M 826.5,1401.5 C 827.43,1405.4 827.763,1409.4 827.5,1413.5C 825.833,1413.5 824.167,1413.5 822.5,1413.5C 822.5,1422.83 822.5,1432.17 822.5,1441.5C 820.833,1441.5 819.167,1441.5 817.5,1441.5C 817.666,1449.51 817.5,1457.51 817,1465.5C 812.721,1468 808.054,1469 803,1468.5C 799.833,1468.33 796.667,1468.17 793.5,1468C 791.152,1467.65 789.319,1466.49 788,1464.5C 787.5,1456.84 787.334,1449.17 787.5,1441.5C 785.833,1441.5 784.167,1441.5 782.5,1441.5C 782.5,1432.5 782.5,1423.5 782.5,1414.5C 780.833,1414.5 779.167,1414.5 777.5,1414.5C 777.5,1410.17 777.5,1405.83 777.5,1401.5C 778.5,1401.5 779.5,1401.5 780.5,1401.5C 780.5,1400.17 780.5,1398.83 780.5,1397.5C 778.076,1397.81 775.743,1397.47 773.5,1396.5C 772.161,1393.5 770.827,1390.5 769.5,1387.5C 770.137,1384.89 771.304,1382.56 773,1380.5C 773.5,1370.84 773.666,1361.17 773.5,1351.5C 770.107,1351.94 767.107,1351.1 764.5,1349C 753.152,1348.17 741.819,1348.33 730.5,1349.5C 729.975,1350.19 729.308,1350.69 728.5,1351C 715.171,1351.5 701.837,1351.67 688.5,1351.5C 688.5,1350.17 688.5,1348.83 688.5,1347.5C 654.832,1347.33 621.165,1347.5 587.5,1348C 566.292,1363.54 548.126,1382.04 533,1403.5C 514.874,1431.45 510.208,1461.45 519,1493.5C 523.259,1504.76 531.092,1512.26 542.5,1516C 570.165,1516.5 597.831,1516.67 625.5,1516.5C 625.5,1509.5 625.5,1502.5 625.5,1495.5C 645.833,1495.5 666.167,1495.5 686.5,1495.5C 687.495,1484.35 687.828,1473.01 687.5,1461.5C 688.791,1461.74 689.791,1461.4 690.5,1460.5C 690.5,1455.5 690.5,1450.5 690.5,1445.5C 684.824,1445.67 679.157,1445.5 673.5,1445C 668.244,1439.92 668.244,1434.92 673.5,1430C 688.833,1429.33 704.167,1429.33 719.5,1430C 724.833,1435 724.833,1440 719.5,1445C 714.511,1445.5 709.511,1445.67 704.5,1445.5C 704.5,1450.5 704.5,1455.5 704.5,1460.5C 711.313,1461.49 718.313,1461.82 725.5,1461.5C 725.173,1470.68 725.507,1479.68 726.5,1488.5C 790.168,1488.33 853.834,1488.5 917.5,1489C 921.866,1490.2 924.199,1493.03 924.5,1497.5C 922.194,1509.95 915.528,1519.12 904.5,1525C 859.835,1525.5 815.168,1525.67 770.5,1525.5C 770.177,1530.49 767.51,1533.16 762.5,1533.5C 739.833,1533.5 717.167,1533.5 694.5,1533.5C 694.177,1539.69 694.51,1545.69 695.5,1551.5C 703.807,1552.83 712.473,1553.5 721.5,1553.5C 730.167,1553.33 738.833,1553.17 747.5,1553C 753.523,1551.44 759.523,1549.77 765.5,1548C 783.5,1547.33 801.5,1547.33 819.5,1548C 820.672,1548.42 821.672,1549.09 822.5,1550C 829.864,1549.79 836.364,1551.95 842,1556.5C 842.167,1559.5 842.333,1562.5 842.5,1565.5C 841.419,1573.81 840.586,1582.14 840,1590.5C 836.586,1595.25 832.086,1598.42 826.5,1600C 803.77,1600.97 781.103,1600.63 758.5,1599C 754.916,1596.96 751.416,1594.79 748,1592.5C 747.5,1585.51 747.334,1578.51 747.5,1571.5C 742.031,1570.64 736.531,1569.97 731,1569.5C 728.04,1569.44 725.207,1569.94 722.5,1571C 743.616,1583.07 751.116,1600.9 745,1624.5C 740.845,1635.82 733.011,1643.16 721.5,1646.5C 721.666,1655.51 721.5,1664.51 721,1673.5C 720.5,1674 720,1674.5 719.5,1675C 716.183,1675.5 712.85,1675.67 709.5,1675.5C 709.5,1686.5 709.5,1697.5 709.5,1708.5C 705.5,1708.5 701.5,1708.5 697.5,1708.5C 696.505,1719.99 696.172,1731.65 696.5,1743.5C 709.5,1743.5 722.5,1743.5 735.5,1743.5C 735.5,1742.17 735.5,1740.83 735.5,1739.5C 749.516,1739.83 763.516,1739.5 777.5,1738.5C 770.833,1728.17 764.167,1717.83 757.5,1707.5C 762.084,1701.76 767.917,1697.76 775,1695.5C 794.862,1724.71 814.362,1754.21 833.5,1784C 858.5,1784.33 883.5,1784.67 908.5,1785C 911.034,1785.52 913.2,1786.68 915,1788.5C 915.667,1799.5 915.667,1810.5 915,1821.5C 914.167,1822.33 913.333,1823.17 912.5,1824C 890.833,1824.67 869.167,1824.67 847.5,1824C 843.907,1821.54 839.907,1820.21 835.5,1820C 809.167,1819.33 782.833,1819.33 756.5,1820C 755.04,1821.58 753.373,1822.92 751.5,1824C 734.167,1824.67 716.833,1824.67 699.5,1824C 697.725,1822.56 695.725,1821.56 693.5,1821C 663.167,1820.33 632.833,1820.33 602.5,1821C 600.999,1822.25 599.332,1823.25 597.5,1824C 545.833,1824.67 494.167,1824.67 442.5,1824C 441.619,1823.29 440.953,1822.46 440.5,1821.5C 440.5,1810.83 440.5,1800.17 440.5,1789.5C 441.791,1789.74 442.791,1789.4 443.5,1788.5C 479.282,1787.42 510.282,1774.92 536.5,1751C 551.134,1738.04 563.967,1723.54 575,1707.5C 577.883,1702.4 580.217,1697.07 582,1691.5C 584.296,1679.59 585.796,1667.59 586.5,1655.5C 506.952,1639.78 460.786,1591.78 448,1511.5C 440.158,1452.38 451.158,1397.04 481,1345.5C 501.988,1312.84 525.655,1282.17 552,1253.5C 582.593,1220.57 614.76,1189.4 648.5,1160C 664.404,1158.53 680.404,1158.03 696.5,1158.5C 696.183,1161.57 696.516,1164.57 697.5,1167.5C 698.493,1162.88 698.827,1158.21 698.5,1153.5C 716.167,1153.5 733.833,1153.5 751.5,1153.5C 751.5,1158.17 751.5,1162.83 751.5,1167.5C 758.426,1163.78 764.759,1158.95 770.5,1153C 773.206,1151.09 776.206,1150.26 779.5,1150.5C 779.333,1117.83 779.5,1085.16 780,1052.5C 785.674,1048.39 792.007,1046.72 799,1047.5C 806.318,1046.83 812.985,1048.5 819,1052.5C 819.5,1085.16 819.667,1117.83 819.5,1150.5C 826.542,1150.85 831.875,1154.02 835.5,1160C 838.927,1161.43 841.76,1163.6 844,1166.5C 844.667,1224.17 844.667,1281.83 844,1339.5C 842.859,1341.61 841.359,1343.44 839.5,1345C 852.967,1338.93 866.3,1332.27 879.5,1325C 881.167,1324.33 882.833,1324.33 884.5,1325C 890.567,1328.66 893.4,1333.82 893,1340.5C 896.306,1343.81 899.64,1347.14 903,1350.5C 903.374,1352.9 903.374,1355.23 903,1357.5C 917.833,1370.33 932.667,1383.17 947.5,1396C 949.964,1398.73 950.797,1401.89 950,1405.5C 944.5,1411.67 939,1417.83 933.5,1424C 929.213,1424.46 925.546,1423.13 922.5,1420C 908.911,1407.07 894.744,1394.9 880,1383.5C 878.53,1385.57 876.53,1386.91 874,1387.5C 868.673,1384.67 863.673,1381.34 859,1377.5C 858.63,1380.34 858.797,1383.17 859.5,1386C 859.561,1388.26 858.894,1390.26 857.5,1392C 851.998,1395.59 846.331,1398.92 840.5,1402C 835.324,1402.67 830.824,1401.17 827,1397.5C 826.51,1398.79 826.343,1400.13 826.5,1401.5 Z"/></g>
<g><path style="opacity:1" fill="#fffefe" d="M 2304.5,1147.5 C 2313.51,1147.33 2322.51,1147.5 2331.5,1148C 2334.01,1151.86 2335.85,1156.02 2337,1160.5C 2337.09,1172.63 2340.09,1183.96 2346,1194.5C 2355.73,1202.42 2366.9,1207.25 2379.5,1209C 2396.02,1213.01 2409.52,1208.51 2420,1195.5C 2423.97,1185.73 2429.8,1177.23 2437.5,1170C 2446.67,1171.95 2455.51,1175.12 2464,1179.5C 2464.67,1184.83 2464.67,1190.17 2464,1195.5C 2461.04,1202.55 2459.21,1209.88 2458.5,1217.5C 2458.46,1224.43 2460.29,1230.76 2464,1236.5C 2474.86,1249.36 2488.36,1258.19 2504.5,1263C 2511.91,1263.98 2518.91,1262.64 2525.5,1259C 2530.45,1255.71 2535.12,1252.05 2539.5,1248C 2544.5,1244.83 2549.83,1242.33 2555.5,1240.5C 2561.82,1246.32 2567.99,1252.32 2574,1258.5C 2573.47,1264.58 2571.47,1270.25 2568,1275.5C 2550.13,1291.82 2547.79,1310.16 2561,1330.5C 2567.17,1340.67 2575.33,1348.83 2585.5,1355C 2588.95,1355.86 2592.45,1356.36 2596,1356.5C 2604.12,1355.85 2611.95,1354.01 2619.5,1351C 2624.83,1350.33 2630.17,1350.33 2635.5,1351C 2639.24,1358.99 2642.58,1367.15 2645.5,1375.5C 2643.77,1378.74 2641.43,1381.58 2638.5,1384C 2632.06,1388.37 2625.39,1392.37 2618.5,1396C 2606.38,1405.7 2602.21,1418.2 2606,1433.5C 2607.48,1444.95 2611.15,1455.61 2617,1465.5C 2620.39,1469.45 2624.55,1472.28 2629.5,1474C 2639.38,1476.55 2649.38,1478.55 2659.5,1480C 2661.96,1481.31 2664.46,1482.48 2667,1483.5C 2667.83,1492.85 2667.67,1502.18 2666.5,1511.5C 2656.37,1516.23 2645.71,1518.73 2634.5,1519C 2622.86,1521.97 2615.03,1529.14 2611,1540.5C 2604.66,1556.33 2603.99,1572.33 2609,1588.5C 2611.28,1590.91 2613.45,1593.41 2615.5,1596C 2621.84,1600.5 2628.5,1604.5 2635.5,1608C 2639.83,1611 2643.5,1614.67 2646.5,1619C 2642.67,1626.98 2639.34,1635.15 2636.5,1643.5C 2625.45,1644.53 2614.79,1643.03 2604.5,1639C 2593.55,1636.53 2583.88,1638.86 2575.5,1646C 2562.68,1657.8 2554.68,1672.3 2551.5,1689.5C 2552.29,1694.71 2553.79,1699.71 2556,1704.5C 2560.28,1711.11 2564.95,1717.45 2570,1723.5C 2572.16,1727.33 2573.5,1731.33 2574,1735.5C 2567.64,1741.86 2561.31,1748.19 2555,1754.5C 2544.96,1750.9 2536.12,1745.4 2528.5,1738C 2519.86,1732.17 2510.52,1730.5 2500.5,1733C 2486.18,1738.41 2474.02,1746.91 2464,1758.5C 2462.14,1760.89 2460.81,1763.55 2460,1766.5C 2458.57,1777.21 2459.9,1787.54 2464,1797.5C 2464.83,1803.53 2464.66,1809.53 2463.5,1815.5C 2455.71,1818.93 2447.87,1822.26 2440,1825.5C 2436.71,1823.22 2433.71,1820.55 2431,1817.5C 2426.63,1811.06 2422.63,1804.39 2419,1797.5C 2412.09,1788.04 2402.75,1783.71 2391,1784.5C 2377.37,1785.12 2364.54,1788.62 2352.5,1795C 2345.11,1800.25 2340.61,1807.42 2339,1816.5C 2339.16,1827.35 2336.66,1837.52 2331.5,1847C 2322.5,1847.67 2313.5,1847.67 2304.5,1847C 2299.34,1837.53 2296.84,1827.37 2297,1816.5C 2294.89,1804.75 2288.39,1796.59 2277.5,1792C 2261.55,1785.32 2245.22,1783.99 2228.5,1788C 2224.03,1791.47 2219.87,1795.3 2216,1799.5C 2212.12,1808.76 2206.62,1816.92 2199.5,1824C 2198.27,1824.78 2196.94,1825.28 2195.5,1825.5C 2187.53,1822.46 2179.7,1819.12 2172,1815.5C 2170.61,1805.12 2171.94,1795.12 2176,1785.5C 2179.05,1775.26 2177.38,1765.92 2171,1757.5C 2159.62,1745.06 2145.78,1736.56 2129.5,1732C 2121.56,1731.53 2114.22,1733.53 2107.5,1738C 2100.32,1745.09 2091.99,1750.43 2082.5,1754C 2081.5,1754.67 2080.5,1754.67 2079.5,1754C 2072.71,1747.89 2066.71,1741.22 2061.5,1734C 2063.25,1729 2065.41,1724.17 2068,1719.5C 2075.49,1712.67 2080.49,1704.34 2083,1694.5C 2083.67,1690.83 2083.67,1687.17 2083,1683.5C 2078.07,1669.13 2070.24,1656.63 2059.5,1646C 2053.44,1640.53 2046.27,1638.03 2038,1638.5C 2029.38,1639.7 2020.88,1641.54 2012.5,1644C 2008.13,1644.83 2003.8,1644.66 1999.5,1643.5C 1995.41,1635.04 1992.24,1626.38 1990,1617.5C 1997.7,1609.73 2006.53,1603.57 2016.5,1599C 2028.9,1588.27 2033.07,1574.77 2029,1558.5C 2027.21,1546.45 2022.71,1535.62 2015.5,1526C 2005.75,1519.89 1995.08,1516.89 1983.5,1517C 1978.29,1515.73 1973.29,1513.9 1968.5,1511.5C 1967.17,1502.17 1967.17,1492.83 1968.5,1483.5C 1971.71,1481.73 1975.05,1480.23 1978.5,1479C 1990.86,1478.66 2002.53,1475.66 2013.5,1470C 2021.38,1461.73 2026.22,1451.9 2028,1440.5C 2035.22,1414.77 2026.39,1397.27 2001.5,1388C 1997.37,1384.87 1993.53,1381.37 1990,1377.5C 1989.33,1376.17 1989.33,1374.83 1990,1373.5C 1993,1366.17 1996,1358.83 1999,1351.5C 2003.41,1350.37 2007.91,1350.2 2012.5,1351C 2018.67,1352.09 2024.67,1353.75 2030.5,1356C 2039.32,1357.44 2047.65,1356.11 2055.5,1352C 2070.61,1339.62 2079.94,1323.78 2083.5,1304.5C 2081.39,1292.61 2075.89,1282.61 2067,1274.5C 2064.56,1269.95 2062.39,1265.29 2060.5,1260.5C 2066.65,1253.85 2072.99,1247.35 2079.5,1241C 2083.6,1241.7 2087.6,1243.03 2091.5,1245C 2097.97,1250.74 2104.97,1255.74 2112.5,1260C 2120.36,1264.15 2128.36,1264.48 2136.5,1261C 2152.9,1255.23 2165.73,1245.06 2175,1230.5C 2177.59,1218.52 2176.59,1206.85 2172,1195.5C 2171.5,1189.84 2171.33,1184.18 2171.5,1178.5C 2179.85,1175.66 2188.02,1172.33 2196,1168.5C 2200.33,1171.5 2204,1175.17 2207,1179.5C 2210.5,1186.5 2214.5,1193.16 2219,1199.5C 2225.34,1206.73 2233.34,1210.06 2243,1209.5C 2255.68,1209.43 2267.84,1206.93 2279.5,1202C 2288.42,1198.02 2293.92,1191.19 2296,1181.5C 2296.02,1169.42 2298.85,1158.08 2304.5,1147.5 Z"/></g>
<g><path style="opacity:1" fill="#fbd016" d="M 2315.5,1240.5 C 2333.16,1239.99 2343.99,1248.32 2348,1265.5C 2347.52,1288.64 2335.69,1299.14 2312.5,1297C 2296.01,1290.87 2289.18,1279.03 2292,1261.5C 2295.97,1250.02 2303.8,1243.02 2315.5,1240.5 Z"/></g>
<g><path style="opacity:1" fill="#fbd017" d="M 2426.5,1270.5 C 2449.65,1270.82 2460.49,1282.49 2459,1305.5C 2454.21,1321.61 2443.38,1329.11 2426.5,1328C 2409.09,1323 2401.25,1311.5 2403,1293.5C 2406.75,1281.58 2414.59,1273.91 2426.5,1270.5 Z"/></g>
<g><path style="opacity:1" fill="#fbd016" d="M 2199.5,1272.5 C 2223.21,1272.38 2234.38,1284.04 2233,1307.5C 2225.88,1326.98 2212.38,1333.48 2192.5,1327C 2176.76,1316.53 2172.92,1302.7 2181,1285.5C 2185.68,1278.97 2191.85,1274.64 2199.5,1272.5 Z"/></g>
<g><path style="opacity:1" fill="#fbd01b" d="M 2309.5,1327.5 C 2374.25,1326.78 2423.41,1353.78 2457,1408.5C 2483.51,1460.81 2482.84,1512.81 2455,1564.5C 2419.49,1619.84 2368.65,1645.34 2302.5,1641C 2243.04,1632.21 2200.54,1600.71 2175,1546.5C 2149.97,1477.79 2163.47,1417.96 2215.5,1367C 2242.79,1344.18 2274.12,1331.02 2309.5,1327.5 Z"/></g>
<g><path style="opacity:1" fill="#fffbef" d="M 2307.5,1340.5 C 2374.26,1339.17 2422.42,1368.17 2452,1427.5C 2472.48,1480.6 2465.81,1529.93 2432,1575.5C 2391.54,1621.1 2341.37,1637.26 2281.5,1624C 2235.66,1609.83 2203.5,1580.66 2185,1536.5C 2164.05,1471.78 2178.88,1416.95 2229.5,1372C 2252.73,1354.54 2278.73,1344.04 2307.5,1340.5 Z"/></g>
<g><path style="opacity:1" fill="#fbd014" d="M 2308.5,1343.5 C 2380.87,1342.75 2429.7,1376.08 2455,1443.5C 2470.63,1507.95 2452.46,1560.45 2400.5,1601C 2350.14,1632.92 2298.81,1634.59 2246.5,1606C 2197.81,1573.78 2175.31,1528.28 2179,1469.5C 2188.01,1410.49 2220.51,1370.65 2276.5,1350C 2287.16,1347.06 2297.83,1344.9 2308.5,1343.5 Z"/></g>
<g><path style="opacity:1" fill="#fbd016" d="M 2503.5,1350.5 C 2520.63,1348.47 2532.13,1355.47 2538,1371.5C 2540.86,1387.96 2534.69,1399.46 2519.5,1406C 2499.94,1410.14 2487.44,1402.64 2482,1383.5C 2481.16,1367.16 2488.32,1356.16 2503.5,1350.5 Z"/></g>
<g><path style="opacity:1" fill="#fbd016" d="M 2119.5,1355.5 C 2142.68,1354.52 2154.18,1365.52 2154,1388.5C 2150.61,1404.03 2140.94,1412.03 2125,1412.5C 2104.76,1409.59 2095.76,1397.92 2098,1377.5C 2101.35,1366.32 2108.52,1358.98 2119.5,1355.5 Z"/></g>
<g><path style="opacity:1" fill="#9aa8d1" d="M 826.5,1401.5 C 828.43,1405.37 829.097,1409.71 828.5,1414.5C 826.833,1414.5 825.167,1414.5 823.5,1414.5C 823.827,1423.68 823.493,1432.68 822.5,1441.5C 822.5,1432.17 822.5,1422.83 822.5,1413.5C 824.167,1413.5 825.833,1413.5 827.5,1413.5C 827.763,1409.4 827.43,1405.4 826.5,1401.5 Z"/></g>
<g><path style="opacity:1" fill="#b5c0dd" d="M 690.5,1460.5 C 689.791,1461.4 688.791,1461.74 687.5,1461.5C 687.828,1473.01 687.495,1484.35 686.5,1495.5C 686.5,1483.83 686.5,1472.17 686.5,1460.5C 687.833,1460.5 689.167,1460.5 690.5,1460.5 Z"/></g>
<g><path style="opacity:1" fill="#a2b0d5" d="M 704.5,1460.5 C 711.833,1460.5 719.167,1460.5 726.5,1460.5C 726.5,1469.83 726.5,1479.17 726.5,1488.5C 725.507,1479.68 725.173,1470.68 725.5,1461.5C 718.313,1461.82 711.313,1461.49 704.5,1460.5 Z"/></g>
<g><path style="opacity:1" fill="#fbd016" d="M 2092.5,1461.5 C 2115.09,1460.5 2126.59,1471.17 2127,1493.5C 2124.21,1509.45 2114.71,1517.79 2098.5,1518.5C 2077.51,1515.66 2068.34,1503.66 2071,1482.5C 2074.78,1471.89 2081.94,1464.89 2092.5,1461.5 Z"/></g>
<g><path style="opacity:1" fill="#fbd016" d="M 2534.5,1461.5 C 2550.97,1460.15 2562.13,1467.15 2568,1482.5C 2570.01,1507.49 2558.51,1519.32 2533.5,1518C 2513.87,1510.24 2507.7,1496.41 2515,1476.5C 2519.69,1468.96 2526.19,1463.96 2534.5,1461.5 Z"/></g>
<g><path style="opacity:1" fill="#6d83bd" d="M 762.5,1533.5 C 740.34,1534.5 718.006,1534.83 695.5,1534.5C 695.5,1540.17 695.5,1545.83 695.5,1551.5C 694.51,1545.69 694.177,1539.69 694.5,1533.5C 717.167,1533.5 739.833,1533.5 762.5,1533.5 Z"/></g>
<g><path style="opacity:1" fill="#fbd016" d="M 2507.5,1567.5 C 2531.2,1567.36 2542.36,1579.03 2541,1602.5C 2533.88,1621.98 2520.38,1628.48 2500.5,1622C 2488.55,1614.93 2483.38,1604.43 2485,1590.5C 2488.02,1578.32 2495.52,1570.65 2507.5,1567.5 Z"/></g>
<g><path style="opacity:1" fill="#fbd016" d="M 2122.5,1572.5 C 2145.68,1571.52 2157.18,1582.52 2157,1605.5C 2152.15,1623.65 2140.32,1631.49 2121.5,1629C 2101.73,1620.62 2095.89,1606.45 2104,1586.5C 2108.49,1579.52 2114.66,1574.85 2122.5,1572.5 Z"/></g>
<g><path style="opacity:0.997" fill="#231f1f" d="M 1502.5,2991.5 C 1501.5,2991.5 1500.5,2991.5 1499.5,2991.5C 1272.02,2764.86 1045.02,2537.69 818.5,2310C 1045.31,2082.03 1272.64,1854.53 1500.5,1627.5C 1728.36,1854.53 1955.69,2082.03 2182.5,2310C 1956,2537.33 1729.34,2764.5 1502.5,2991.5 Z"/></g>
<g><path style="opacity:1" fill="#fbd016" d="M 2427.5,1650.5 C 2450.68,1649.52 2462.18,1660.52 2462,1683.5C 2458.76,1698.88 2449.26,1706.88 2433.5,1707.5C 2416.04,1705.7 2406.71,1696.04 2405.5,1678.5C 2406.53,1664.14 2413.87,1654.81 2427.5,1650.5 Z"/></g>
<g><path style="opacity:1" fill="#fbd017" d="M 2200.5,1652.5 C 2218.51,1650.08 2230.35,1657.42 2236,1674.5C 2238.09,1690.83 2231.59,1702 2216.5,1708C 2199.95,1711.64 2188.11,1705.81 2181,1690.5C 2176.66,1672.17 2183.16,1659.5 2200.5,1652.5 Z"/></g>
<g><path style="opacity:1" fill="#fbd016" d="M 2312.5,1682.5 C 2333.52,1680.82 2345.52,1690.32 2348.5,1711C 2343.63,1735.6 2329.3,1743.93 2305.5,1736C 2290.56,1724.94 2287.39,1711.11 2296,1694.5C 2300.26,1688.74 2305.76,1684.74 2312.5,1682.5 Z"/></g>
<g><path style="opacity:1" fill="#677fbb" d="M 697.5,1708.5 C 697.5,1719.83 697.5,1731.17 697.5,1742.5C 709.833,1742.5 722.167,1742.5 734.5,1742.5C 734.263,1741.21 734.596,1740.21 735.5,1739.5C 735.5,1740.83 735.5,1742.17 735.5,1743.5C 722.5,1743.5 709.5,1743.5 696.5,1743.5C 696.172,1731.65 696.505,1719.99 697.5,1708.5 Z"/></g>
<g><path style="opacity:1" fill="#1f429a" d="M 696.5,1758.5 C 709.167,1758.5 721.833,1758.5 734.5,1758.5C 734.5,1759.83 734.5,1761.17 734.5,1762.5C 754.167,1762.5 773.833,1762.5 793.5,1762.5C 798.032,1769.72 802.698,1776.89 807.5,1784C 766.167,1784.67 724.833,1784.67 683.5,1784C 680.646,1781.46 678.979,1778.29 678.5,1774.5C 678.5,1771.83 678.5,1769.17 678.5,1766.5C 684.026,1766.82 689.36,1766.49 694.5,1765.5C 695.117,1765.39 695.617,1765.06 696,1764.5C 696.495,1762.53 696.662,1760.53 696.5,1758.5 Z"/></g>
<g><path style="opacity:1" fill="#b5c0dd" d="M 696.5,1758.5 C 709.323,1757.5 722.323,1757.17 735.5,1757.5C 735.5,1758.83 735.5,1760.17 735.5,1761.5C 755.007,1761.17 774.341,1761.5 793.5,1762.5C 773.833,1762.5 754.167,1762.5 734.5,1762.5C 734.5,1761.17 734.5,1759.83 734.5,1758.5C 721.833,1758.5 709.167,1758.5 696.5,1758.5 Z"/></g>
<g><path style="opacity:1" fill="#b6c0de" d="M 694.5,1765.5 C 689.36,1766.49 684.026,1766.82 678.5,1766.5C 678.5,1769.17 678.5,1771.83 678.5,1774.5C 677.523,1771.71 677.19,1768.71 677.5,1765.5C 683.167,1765.5 688.833,1765.5 694.5,1765.5 Z"/></g>
<g><path style="opacity:1" fill="#d2d8ea" d="M 443.5,1788.5 C 442.791,1789.4 441.791,1789.74 440.5,1789.5C 440.5,1800.17 440.5,1810.83 440.5,1821.5C 439.505,1810.68 439.172,1799.68 439.5,1788.5C 440.833,1788.5 442.167,1788.5 443.5,1788.5 Z"/></g>
<g><path style="opacity:1" fill="#fdfdfd" d="M 1126.5,2325.5 C 1108.83,2325.5 1091.17,2325.5 1073.5,2325.5C 1073.5,2353.5 1073.5,2381.5 1073.5,2409.5C 1060.17,2409.5 1046.83,2409.5 1033.5,2409.5C 1033.5,2341.83 1033.5,2274.17 1033.5,2206.5C 1066.17,2206.33 1098.84,2206.5 1131.5,2207C 1178.42,2210.25 1198.26,2235.09 1191,2281.5C 1187.75,2298.18 1178.58,2310.35 1163.5,2318C 1151.58,2322.65 1139.25,2325.15 1126.5,2325.5 Z"/></g>
<g><path style="opacity:1" fill="#fdfdfd" d="M 1401.5,2407.5 C 1387.68,2408.5 1373.68,2408.83 1359.5,2408.5C 1355.42,2398.79 1351.42,2388.96 1347.5,2379C 1316.83,2378.33 1286.17,2378.33 1255.5,2379C 1251.37,2388.76 1247.37,2398.59 1243.5,2408.5C 1229.18,2409.5 1214.85,2409.83 1200.5,2409.5C 1226.81,2341.74 1253.81,2274.24 1281.5,2207C 1294.83,2206.33 1308.17,2206.33 1321.5,2207C 1348.66,2273.65 1375.33,2340.49 1401.5,2407.5 Z"/></g>
<g><path style="opacity:1" fill="#fdfdfd" d="M 1490.5,2206.5 C 1508.61,2205.96 1526.28,2208.46 1543.5,2214C 1553.95,2219.11 1563.28,2225.78 1571.5,2234C 1562.65,2243.01 1553.65,2251.85 1544.5,2260.5C 1525.89,2243.27 1504.89,2239.77 1481.5,2250C 1469.98,2259.9 1469.64,2269.9 1480.5,2280C 1485.64,2282.57 1490.97,2284.57 1496.5,2286C 1516.58,2287.68 1535.25,2293.68 1552.5,2304C 1563.71,2311.58 1570.55,2322.08 1573,2335.5C 1577.26,2359.41 1569.76,2378.57 1550.5,2393C 1530.26,2406.64 1507.92,2411.98 1483.5,2409C 1458.84,2406.67 1437.84,2396.83 1420.5,2379.5C 1429.15,2370.35 1437.99,2361.35 1447,2352.5C 1458.15,2363.65 1471.65,2369.82 1487.5,2371C 1499.81,2372.67 1511.48,2370.67 1522.5,2365C 1529.04,2358.46 1531.21,2350.63 1529,2341.5C 1526,2333.84 1520.5,2329 1512.5,2327C 1499.08,2324.66 1485.75,2321.99 1472.5,2319C 1433.63,2307.44 1420.47,2282.27 1433,2243.5C 1446.89,2222.97 1466.06,2210.64 1490.5,2206.5 Z"/></g>
<g><path style="opacity:1" fill="#fdfdfd" d="M 1800.5,2406.5 C 1786.87,2408.48 1772.87,2409.15 1758.5,2408.5C 1754.8,2398.56 1750.8,2388.72 1746.5,2379C 1715.83,2378.17 1685.16,2378.33 1654.5,2379.5C 1650.63,2389.41 1646.63,2399.24 1642.5,2409C 1628.16,2409.83 1613.82,2409.67 1599.5,2408.5C 1626.41,2341.28 1653.41,2274.11 1680.5,2207C 1694.18,2206.17 1707.85,2206.33 1721.5,2207.5C 1748.04,2273.78 1774.37,2340.11 1800.5,2406.5 Z"/></g>
<g><path style="opacity:1" fill="#9d9b9b" d="M 1969.5,2207.5 C 1920.17,2207.5 1870.83,2207.5 1821.5,2207.5C 1821.5,2274.83 1821.5,2342.17 1821.5,2409.5C 1820.5,2342 1820.17,2274.34 1820.5,2206.5C 1870.34,2206.17 1920,2206.5 1969.5,2207.5 Z"/></g>
<g><path style="opacity:1" fill="#fefefe" d="M 1969.5,2207.5 C 1969.5,2219.83 1969.5,2232.17 1969.5,2244.5C 1933.5,2244.5 1897.5,2244.5 1861.5,2244.5C 1861.5,2258.83 1861.5,2273.17 1861.5,2287.5C 1888.5,2287.5 1915.5,2287.5 1942.5,2287.5C 1942.5,2300.17 1942.5,2312.83 1942.5,2325.5C 1915.5,2325.5 1888.5,2325.5 1861.5,2325.5C 1861.5,2340.83 1861.5,2356.17 1861.5,2371.5C 1897.5,2371.5 1933.5,2371.5 1969.5,2371.5C 1969.5,2384.17 1969.5,2396.83 1969.5,2409.5C 1920.17,2409.5 1870.83,2409.5 1821.5,2409.5C 1821.5,2342.17 1821.5,2274.83 1821.5,2207.5C 1870.83,2207.5 1920.17,2207.5 1969.5,2207.5 Z"/></g>
<g><path style="opacity:1" fill="#737070" d="M 1134.5,2245.5 C 1114.5,2245.5 1094.5,2245.5 1074.5,2245.5C 1074.5,2259.5 1074.5,2273.5 1074.5,2287.5C 1073.5,2273.34 1073.17,2259.01 1073.5,2244.5C 1094.01,2244.17 1114.34,2244.5 1134.5,2245.5 Z"/></g>
<g><path style="opacity:1" fill="#231f1f" d="M 1134.5,2245.5 C 1152.93,2248.33 1159.09,2258.67 1153,2276.5C 1149.85,2282.32 1145.02,2285.82 1138.5,2287C 1117.17,2287.5 1095.84,2287.67 1074.5,2287.5C 1074.5,2273.5 1074.5,2259.5 1074.5,2245.5C 1094.5,2245.5 1114.5,2245.5 1134.5,2245.5 Z"/></g>
<g><path style="opacity:1" fill="#242020" d="M 1331.5,2336.5 C 1311.83,2337.83 1292.17,2337.83 1272.5,2336.5C 1281.95,2311.6 1291.95,2286.93 1302.5,2262.5C 1312.72,2286.95 1322.39,2311.61 1331.5,2336.5 Z"/></g>
<g><path style="opacity:1" fill="#242020" d="M 1701.5,2261.5 C 1711.72,2286.3 1721.72,2311.3 1731.5,2336.5C 1711.5,2337.83 1691.5,2337.83 1671.5,2336.5C 1681.51,2311.47 1691.51,2286.47 1701.5,2261.5 Z"/></g>
<g><path style="opacity:1" fill="#5f5c5c" d="M 1126.5,2325.5 C 1109.34,2326.5 1092.01,2326.83 1074.5,2326.5C 1074.83,2354.34 1074.5,2382.01 1073.5,2409.5C 1073.5,2381.5 1073.5,2353.5 1073.5,2325.5C 1091.17,2325.5 1108.83,2325.5 1126.5,2325.5 Z"/></g>
<g><path style="opacity:1" fill="#c8c7c7" d="M 1272.5,2336.5 C 1292.17,2337.83 1311.83,2337.83 1331.5,2336.5C 1332.04,2336.56 1332.38,2336.89 1332.5,2337.5C 1312.17,2338.83 1291.83,2338.83 1271.5,2337.5C 1271.62,2336.89 1271.96,2336.56 1272.5,2336.5 Z"/></g>
<g><path style="opacity:1" fill="#c9c8c8" d="M 1401.5,2407.5 C 1402.04,2407.56 1402.38,2407.89 1402.5,2408.5C 1388.01,2409.83 1373.67,2409.83 1359.5,2408.5C 1373.68,2408.83 1387.68,2408.5 1401.5,2407.5 Z"/></g>
<g><path style="opacity:1" fill="#cac9c9" d="M 1800.5,2406.5 C 1801.4,2407.21 1801.74,2408.21 1801.5,2409.5C 1786.99,2409.83 1772.66,2409.5 1758.5,2408.5C 1772.87,2409.15 1786.87,2408.48 1800.5,2406.5 Z"/></g>
</svg>
